<mxfile host="Electron" agent="Mozilla/5.0 (Windows NT 10.0; Win64; x64) AppleWebKit/537.36 (KHTML, like Gecko) draw.io/24.7.5 Chrome/126.0.6478.183 Electron/31.3.0 Safari/537.36" version="24.7.5">
  <diagram name="Page-1" id="2YBvvXClWsGukQMizWep">
    <mxGraphModel dx="1038" dy="623" grid="1" gridSize="10" guides="1" tooltips="1" connect="1" arrows="1" fold="1" page="1" pageScale="1" pageWidth="1100" pageHeight="850" math="0" shadow="0">
      <root>
        <mxCell id="0" />
        <mxCell id="1" parent="0" />
        <mxCell id="sK0hseJZuQR8C6GAi_Dg-1" value="&lt;h1 style=&quot;margin-top: 0px;&quot;&gt;Create User&lt;/h1&gt;" style="text;html=1;whiteSpace=wrap;overflow=hidden;rounded=0;align=center;fillColor=#fff2cc;strokeColor=#d6b656;" parent="1" vertex="1">
          <mxGeometry x="40" y="40" width="200" height="40" as="geometry" />
        </mxCell>
        <mxCell id="sK0hseJZuQR8C6GAi_Dg-2" value="" style="shape=umlLifeline;perimeter=lifelinePerimeter;whiteSpace=wrap;html=1;container=1;dropTarget=0;collapsible=0;recursiveResize=0;outlineConnect=0;portConstraint=eastwest;newEdgeStyle={&quot;curved&quot;:0,&quot;rounded&quot;:0};participant=umlActor;" parent="1" vertex="1">
          <mxGeometry x="70" y="160" width="20" height="320" as="geometry" />
        </mxCell>
        <mxCell id="sK0hseJZuQR8C6GAi_Dg-11" value="" style="html=1;points=[[0,0,0,0,5],[0,1,0,0,-5],[1,0,0,0,5],[1,1,0,0,-5]];perimeter=orthogonalPerimeter;outlineConnect=0;targetShapes=umlLifeline;portConstraint=eastwest;newEdgeStyle={&quot;curved&quot;:0,&quot;rounded&quot;:0};fillColor=#fff2cc;strokeColor=#d6b656;" parent="sK0hseJZuQR8C6GAi_Dg-2" vertex="1">
          <mxGeometry x="5" y="60" width="10" height="260" as="geometry" />
        </mxCell>
        <mxCell id="sK0hseJZuQR8C6GAi_Dg-3" value="" style="shape=umlLifeline;perimeter=lifelinePerimeter;whiteSpace=wrap;html=1;container=1;dropTarget=0;collapsible=0;recursiveResize=0;outlineConnect=0;portConstraint=eastwest;newEdgeStyle={&quot;curved&quot;:0,&quot;rounded&quot;:0};participant=umlActor;" parent="1" vertex="1">
          <mxGeometry x="1010" y="160" width="20" height="320" as="geometry" />
        </mxCell>
        <mxCell id="sK0hseJZuQR8C6GAi_Dg-15" value="" style="html=1;points=[[0,0,0,0,5],[0,1,0,0,-5],[1,0,0,0,5],[1,1,0,0,-5]];perimeter=orthogonalPerimeter;outlineConnect=0;targetShapes=umlLifeline;portConstraint=eastwest;newEdgeStyle={&quot;curved&quot;:0,&quot;rounded&quot;:0};fillColor=#fff2cc;strokeColor=#d6b656;" parent="sK0hseJZuQR8C6GAi_Dg-3" vertex="1">
          <mxGeometry x="5" y="60" width="10" height="260" as="geometry" />
        </mxCell>
        <mxCell id="sK0hseJZuQR8C6GAi_Dg-4" value="Client" style="text;align=center;fontStyle=1;verticalAlign=middle;spacingLeft=3;spacingRight=3;strokeColor=none;rotatable=0;points=[[0,0.5],[1,0.5]];portConstraint=eastwest;html=1;" parent="1" vertex="1">
          <mxGeometry x="40" y="134" width="80" height="26" as="geometry" />
        </mxCell>
        <mxCell id="sK0hseJZuQR8C6GAi_Dg-5" value="DB" style="text;align=center;fontStyle=1;verticalAlign=middle;spacingLeft=3;spacingRight=3;strokeColor=none;rotatable=0;points=[[0,0.5],[1,0.5]];portConstraint=eastwest;html=1;" parent="1" vertex="1">
          <mxGeometry x="980" y="134" width="80" height="26" as="geometry" />
        </mxCell>
        <mxCell id="sK0hseJZuQR8C6GAi_Dg-6" value=":UserController" style="shape=umlLifeline;perimeter=lifelinePerimeter;whiteSpace=wrap;html=1;container=1;dropTarget=0;collapsible=0;recursiveResize=0;outlineConnect=0;portConstraint=eastwest;newEdgeStyle={&quot;curved&quot;:0,&quot;rounded&quot;:0};fillColor=#e1d5e7;strokeColor=#9673a6;" parent="1" vertex="1">
          <mxGeometry x="340" y="160" width="110" height="320" as="geometry" />
        </mxCell>
        <mxCell id="sK0hseJZuQR8C6GAi_Dg-12" value="" style="html=1;points=[[0,0,0,0,5],[0,1,0,0,-5],[1,0,0,0,5],[1,1,0,0,-5]];perimeter=orthogonalPerimeter;outlineConnect=0;targetShapes=umlLifeline;portConstraint=eastwest;newEdgeStyle={&quot;curved&quot;:0,&quot;rounded&quot;:0};fillColor=#e1d5e7;strokeColor=#9673a6;" parent="sK0hseJZuQR8C6GAi_Dg-6" vertex="1">
          <mxGeometry x="50" y="60" width="10" height="260" as="geometry" />
        </mxCell>
        <mxCell id="sK0hseJZuQR8C6GAi_Dg-7" value=":UserView" style="shape=umlLifeline;perimeter=lifelinePerimeter;whiteSpace=wrap;html=1;container=1;dropTarget=0;collapsible=0;recursiveResize=0;outlineConnect=0;portConstraint=eastwest;newEdgeStyle={&quot;curved&quot;:0,&quot;rounded&quot;:0};fillColor=#ffe6cc;strokeColor=#d79b00;" parent="1" vertex="1">
          <mxGeometry x="180" y="160" width="100" height="320" as="geometry" />
        </mxCell>
        <mxCell id="sK0hseJZuQR8C6GAi_Dg-18" value="" style="html=1;points=[[0,0,0,0,5],[0,1,0,0,-5],[1,0,0,0,5],[1,1,0,0,-5]];perimeter=orthogonalPerimeter;outlineConnect=0;targetShapes=umlLifeline;portConstraint=eastwest;newEdgeStyle={&quot;curved&quot;:0,&quot;rounded&quot;:0};fillColor=#ffe6cc;strokeColor=#d79b00;" parent="sK0hseJZuQR8C6GAi_Dg-7" vertex="1">
          <mxGeometry x="45" y="90" width="10" height="50" as="geometry" />
        </mxCell>
        <mxCell id="sK0hseJZuQR8C6GAi_Dg-30" value="" style="html=1;points=[[0,0,0,0,5],[0,1,0,0,-5],[1,0,0,0,5],[1,1,0,0,-5]];perimeter=orthogonalPerimeter;outlineConnect=0;targetShapes=umlLifeline;portConstraint=eastwest;newEdgeStyle={&quot;curved&quot;:0,&quot;rounded&quot;:0};fillColor=#ffe6cc;strokeColor=#d79b00;" parent="sK0hseJZuQR8C6GAi_Dg-7" vertex="1">
          <mxGeometry x="45" y="220" width="10" height="100" as="geometry" />
        </mxCell>
        <mxCell id="sK0hseJZuQR8C6GAi_Dg-8" value=":User" style="shape=umlLifeline;perimeter=lifelinePerimeter;whiteSpace=wrap;html=1;container=1;dropTarget=0;collapsible=0;recursiveResize=0;outlineConnect=0;portConstraint=eastwest;newEdgeStyle={&quot;curved&quot;:0,&quot;rounded&quot;:0};fillColor=#f8cecc;strokeColor=#b85450;" parent="1" vertex="1">
          <mxGeometry x="520" y="160" width="100" height="320" as="geometry" />
        </mxCell>
        <mxCell id="sK0hseJZuQR8C6GAi_Dg-13" value="" style="html=1;points=[[0,0,0,0,5],[0,1,0,0,-5],[1,0,0,0,5],[1,1,0,0,-5]];perimeter=orthogonalPerimeter;outlineConnect=0;targetShapes=umlLifeline;portConstraint=eastwest;newEdgeStyle={&quot;curved&quot;:0,&quot;rounded&quot;:0};fillColor=#f8cecc;strokeColor=#b85450;" parent="sK0hseJZuQR8C6GAi_Dg-8" vertex="1">
          <mxGeometry x="45" y="60" width="10" height="260" as="geometry" />
        </mxCell>
        <mxCell id="sK0hseJZuQR8C6GAi_Dg-9" value=":UserRepo" style="shape=umlLifeline;perimeter=lifelinePerimeter;whiteSpace=wrap;html=1;container=1;dropTarget=0;collapsible=0;recursiveResize=0;outlineConnect=0;portConstraint=eastwest;newEdgeStyle={&quot;curved&quot;:0,&quot;rounded&quot;:0};fillColor=#dae8fc;strokeColor=#6c8ebf;" parent="1" vertex="1">
          <mxGeometry x="750" y="160" width="100" height="320" as="geometry" />
        </mxCell>
        <mxCell id="sK0hseJZuQR8C6GAi_Dg-14" value="" style="html=1;points=[[0,0,0,0,5],[0,1,0,0,-5],[1,0,0,0,5],[1,1,0,0,-5]];perimeter=orthogonalPerimeter;outlineConnect=0;targetShapes=umlLifeline;portConstraint=eastwest;newEdgeStyle={&quot;curved&quot;:0,&quot;rounded&quot;:0};fillColor=#dae8fc;strokeColor=#6c8ebf;" parent="sK0hseJZuQR8C6GAi_Dg-9" vertex="1">
          <mxGeometry x="45" y="60" width="10" height="260" as="geometry" />
        </mxCell>
        <mxCell id="sK0hseJZuQR8C6GAi_Dg-16" value="Press on Sign Up" style="html=1;verticalAlign=bottom;startArrow=oval;startFill=1;endArrow=block;startSize=8;curved=0;rounded=0;" parent="1" target="sK0hseJZuQR8C6GAi_Dg-12" edge="1">
          <mxGeometry width="60" relative="1" as="geometry">
            <mxPoint x="90" y="240" as="sourcePoint" />
            <mxPoint x="150" y="240" as="targetPoint" />
          </mxGeometry>
        </mxCell>
        <mxCell id="sK0hseJZuQR8C6GAi_Dg-19" value="renderUserForm()" style="html=1;verticalAlign=bottom;endArrow=block;curved=0;rounded=0;" parent="1" target="sK0hseJZuQR8C6GAi_Dg-18" edge="1">
          <mxGeometry width="80" relative="1" as="geometry">
            <mxPoint x="390" y="280" as="sourcePoint" />
            <mxPoint x="310" y="280" as="targetPoint" />
          </mxGeometry>
        </mxCell>
        <mxCell id="sK0hseJZuQR8C6GAi_Dg-20" value="displayUserForm()" style="html=1;verticalAlign=bottom;endArrow=block;curved=0;rounded=0;" parent="1" edge="1">
          <mxGeometry width="80" relative="1" as="geometry">
            <mxPoint x="225" y="280" as="sourcePoint" />
            <mxPoint x="85" y="280" as="targetPoint" />
          </mxGeometry>
        </mxCell>
        <mxCell id="sK0hseJZuQR8C6GAi_Dg-21" value="Fill and Submit Sign Up Form" style="html=1;verticalAlign=bottom;startArrow=oval;startFill=1;endArrow=block;startSize=8;curved=0;rounded=0;" parent="1" target="sK0hseJZuQR8C6GAi_Dg-12" edge="1">
          <mxGeometry width="60" relative="1" as="geometry">
            <mxPoint x="90" y="360" as="sourcePoint" />
            <mxPoint x="150" y="360" as="targetPoint" />
          </mxGeometry>
        </mxCell>
        <mxCell id="sK0hseJZuQR8C6GAi_Dg-22" value="submitUserForm()" style="html=1;verticalAlign=bottom;endArrow=block;curved=0;rounded=0;" parent="1" target="sK0hseJZuQR8C6GAi_Dg-13" edge="1">
          <mxGeometry width="80" relative="1" as="geometry">
            <mxPoint x="400" y="360" as="sourcePoint" />
            <mxPoint x="480" y="360" as="targetPoint" />
          </mxGeometry>
        </mxCell>
        <mxCell id="sK0hseJZuQR8C6GAi_Dg-23" value="processUserForm($userData)" style="html=1;verticalAlign=bottom;endArrow=block;curved=0;rounded=0;" parent="1" edge="1">
          <mxGeometry width="80" relative="1" as="geometry">
            <mxPoint x="575" y="360" as="sourcePoint" />
            <mxPoint x="795" y="360" as="targetPoint" />
          </mxGeometry>
        </mxCell>
        <mxCell id="sK0hseJZuQR8C6GAi_Dg-25" value="create($sql)" style="html=1;verticalAlign=bottom;endArrow=block;curved=0;rounded=0;" parent="1" edge="1">
          <mxGeometry width="80" relative="1" as="geometry">
            <mxPoint x="805" y="360" as="sourcePoint" />
            <mxPoint x="1015" y="360" as="targetPoint" />
          </mxGeometry>
        </mxCell>
        <mxCell id="sK0hseJZuQR8C6GAi_Dg-26" value="$result" style="html=1;verticalAlign=bottom;endArrow=open;dashed=1;endSize=8;curved=0;rounded=0;" parent="1" edge="1">
          <mxGeometry relative="1" as="geometry">
            <mxPoint x="1015" y="400" as="sourcePoint" />
            <mxPoint x="805" y="400" as="targetPoint" />
          </mxGeometry>
        </mxCell>
        <mxCell id="sK0hseJZuQR8C6GAi_Dg-27" value="$result" style="html=1;verticalAlign=bottom;endArrow=open;dashed=1;endSize=8;curved=0;rounded=0;" parent="1" edge="1">
          <mxGeometry relative="1" as="geometry">
            <mxPoint x="795" y="400" as="sourcePoint" />
            <mxPoint x="575" y="400" as="targetPoint" />
          </mxGeometry>
        </mxCell>
        <mxCell id="sK0hseJZuQR8C6GAi_Dg-28" value="$result" style="html=1;verticalAlign=bottom;endArrow=open;dashed=1;endSize=8;curved=0;rounded=0;" parent="1" edge="1">
          <mxGeometry relative="1" as="geometry">
            <mxPoint x="565" y="400" as="sourcePoint" />
            <mxPoint x="400" y="400" as="targetPoint" />
          </mxGeometry>
        </mxCell>
        <mxCell id="sK0hseJZuQR8C6GAi_Dg-29" value="renderResult($result)" style="html=1;verticalAlign=bottom;endArrow=block;curved=0;rounded=0;" parent="1" target="sK0hseJZuQR8C6GAi_Dg-30" edge="1">
          <mxGeometry width="80" relative="1" as="geometry">
            <mxPoint x="390" y="400" as="sourcePoint" />
            <mxPoint x="310" y="400" as="targetPoint" />
          </mxGeometry>
        </mxCell>
        <mxCell id="sK0hseJZuQR8C6GAi_Dg-31" value="displayResult($result)" style="html=1;verticalAlign=bottom;endArrow=block;curved=0;rounded=0;" parent="1" edge="1">
          <mxGeometry width="80" relative="1" as="geometry">
            <mxPoint x="225" y="400" as="sourcePoint" />
            <mxPoint x="85" y="400" as="targetPoint" />
          </mxGeometry>
        </mxCell>
      </root>
    </mxGraphModel>
  </diagram>
</mxfile>
